<mxfile host="Electron" agent="Mozilla/5.0 (Windows NT 10.0; Win64; x64) AppleWebKit/537.36 (KHTML, like Gecko) draw.io/28.1.2 Chrome/138.0.7204.243 Electron/37.4.0 Safari/537.36" version="28.1.2">
  <diagram name="Página-1" id="hKzyU3mM6k66Vngv0YXj">
    <mxGraphModel dx="872" dy="1706" grid="1" gridSize="10" guides="1" tooltips="1" connect="1" arrows="1" fold="1" page="1" pageScale="1" pageWidth="827" pageHeight="1169" math="0" shadow="0">
      <root>
        <mxCell id="0" />
        <mxCell id="1" parent="0" />
        <mxCell id="l5MXZXj10_vNmwvhvefn-36" value="" style="whiteSpace=wrap;html=1;shape=mxgraph.basic.cloud_rect" vertex="1" parent="1">
          <mxGeometry x="260" y="-570" width="580" height="560" as="geometry" />
        </mxCell>
        <mxCell id="l5MXZXj10_vNmwvhvefn-2" value="Actor" style="shape=umlActor;verticalLabelPosition=bottom;verticalAlign=top;html=1;outlineConnect=0;" vertex="1" parent="1">
          <mxGeometry x="10" y="-320" width="30" height="60" as="geometry" />
        </mxCell>
        <mxCell id="l5MXZXj10_vNmwvhvefn-3" value="" style="verticalLabelPosition=bottom;aspect=fixed;html=1;shape=mxgraph.salesforce.web;fillColorStyles=fillColor2,fillColor3,fillColor4;fillColor2=#032d60;fillColor3=#0d9dda;fillColor4=#ffffff;fillColor=none;strokeColor=none;" vertex="1" parent="1">
          <mxGeometry x="80" y="-331.24" width="110.35" height="87.17" as="geometry" />
        </mxCell>
        <mxCell id="l5MXZXj10_vNmwvhvefn-4" value="" style="endArrow=classic;html=1;rounded=0;exitX=0.5;exitY=0.5;exitDx=0;exitDy=0;exitPerimeter=0;" edge="1" parent="1">
          <mxGeometry width="50" height="50" relative="1" as="geometry">
            <mxPoint x="25" y="-280" as="sourcePoint" />
            <mxPoint x="80" y="-280" as="targetPoint" />
          </mxGeometry>
        </mxCell>
        <mxCell id="l5MXZXj10_vNmwvhvefn-6" value="EC2" style="verticalLabelPosition=bottom;html=1;verticalAlign=top;strokeWidth=1;align=center;outlineConnect=0;dashed=0;outlineConnect=0;shape=mxgraph.aws3d.application_server;fillColor=#ECECEC;strokeColor=#5E5E5E;aspect=fixed;strokeColor2=#292929;" vertex="1" parent="1">
          <mxGeometry x="290" y="-331.24" width="95.16" height="95.93" as="geometry" />
        </mxCell>
        <mxCell id="l5MXZXj10_vNmwvhvefn-7" value="AWS" style="ellipse;shape=cloud;whiteSpace=wrap;html=1;" vertex="1" parent="1">
          <mxGeometry x="330" y="-520" width="120" height="80" as="geometry" />
        </mxCell>
        <mxCell id="l5MXZXj10_vNmwvhvefn-17" value="" style="endArrow=classic;html=1;rounded=0;exitX=1.006;exitY=0.574;exitDx=0;exitDy=0;exitPerimeter=0;" edge="1" parent="1" source="l5MXZXj10_vNmwvhvefn-3">
          <mxGeometry width="50" height="50" relative="1" as="geometry">
            <mxPoint x="330" y="-220" as="sourcePoint" />
            <mxPoint x="290" y="-280" as="targetPoint" />
          </mxGeometry>
        </mxCell>
        <mxCell id="l5MXZXj10_vNmwvhvefn-18" value="Internet" style="text;html=1;align=center;verticalAlign=middle;resizable=0;points=[];autosize=1;strokeColor=none;fillColor=none;" vertex="1" parent="1">
          <mxGeometry x="199" y="-305" width="60" height="30" as="geometry" />
        </mxCell>
        <mxCell id="l5MXZXj10_vNmwvhvefn-20" value="" style="endArrow=classic;html=1;rounded=0;" edge="1" parent="1" target="l5MXZXj10_vNmwvhvefn-21">
          <mxGeometry width="50" height="50" relative="1" as="geometry">
            <mxPoint x="520" y="-280" as="sourcePoint" />
            <mxPoint x="530" y="-290" as="targetPoint" />
            <Array as="points">
              <mxPoint x="610" y="-280" />
            </Array>
          </mxGeometry>
        </mxCell>
        <mxCell id="l5MXZXj10_vNmwvhvefn-26" style="edgeStyle=orthogonalEdgeStyle;rounded=0;orthogonalLoop=1;jettySize=auto;html=1;" edge="1" parent="1" source="l5MXZXj10_vNmwvhvefn-21">
          <mxGeometry relative="1" as="geometry">
            <mxPoint x="780" y="-160" as="targetPoint" />
          </mxGeometry>
        </mxCell>
        <mxCell id="l5MXZXj10_vNmwvhvefn-21" value="Lambda&lt;div&gt;Função de Processamento de Imagem&lt;/div&gt;" style="verticalLabelPosition=bottom;html=1;verticalAlign=top;strokeWidth=1;align=center;outlineConnect=0;dashed=0;outlineConnect=0;shape=mxgraph.aws3d.lambda;fillColor=#ECECEC;strokeColor=#5E5E5E;aspect=fixed;strokeColor2=#292929;strokeColor3=#ffffff;" vertex="1" parent="1">
          <mxGeometry x="610" y="-320" width="75.2" height="89.5" as="geometry" />
        </mxCell>
        <mxCell id="l5MXZXj10_vNmwvhvefn-25" value="" style="endArrow=classic;html=1;rounded=0;entryX=0;entryY=0.582;entryDx=0;entryDy=0;entryPerimeter=0;" edge="1" parent="1" target="l5MXZXj10_vNmwvhvefn-19">
          <mxGeometry width="50" height="50" relative="1" as="geometry">
            <mxPoint x="390" y="-280" as="sourcePoint" />
            <mxPoint x="430" y="-283" as="targetPoint" />
          </mxGeometry>
        </mxCell>
        <mxCell id="l5MXZXj10_vNmwvhvefn-19" value="&amp;nbsp;S3&lt;div&gt;Upload Image&lt;/div&gt;" style="outlineConnect=0;dashed=0;verticalLabelPosition=bottom;verticalAlign=top;align=center;html=1;shape=mxgraph.aws3.s3;fillColor=#E05243;gradientColor=none;" vertex="1" parent="1">
          <mxGeometry x="440" y="-334.15" width="76.5" height="93" as="geometry" />
        </mxCell>
        <mxCell id="l5MXZXj10_vNmwvhvefn-27" value="&amp;nbsp;S3&lt;div&gt;Galeria de Imagem&lt;/div&gt;" style="outlineConnect=0;dashed=0;verticalLabelPosition=bottom;verticalAlign=top;align=center;html=1;shape=mxgraph.aws3.s3;fillColor=#E05243;gradientColor=none;" vertex="1" parent="1">
          <mxGeometry x="740" y="-150" width="76.5" height="93" as="geometry" />
        </mxCell>
        <mxCell id="l5MXZXj10_vNmwvhvefn-32" value="EBS&lt;div&gt;Armazenamento de Dados&lt;/div&gt;" style="outlineConnect=0;dashed=0;verticalLabelPosition=bottom;verticalAlign=top;align=center;html=1;shape=mxgraph.aws3.volume;fillColor=#E05243;gradientColor=none;" vertex="1" parent="1">
          <mxGeometry x="311.33" y="-150" width="52.5" height="75" as="geometry" />
        </mxCell>
        <mxCell id="l5MXZXj10_vNmwvhvefn-33" value="" style="endArrow=classic;html=1;rounded=0;entryX=0.5;entryY=0;entryDx=0;entryDy=0;entryPerimeter=0;" edge="1" parent="1" source="l5MXZXj10_vNmwvhvefn-6" target="l5MXZXj10_vNmwvhvefn-32">
          <mxGeometry width="50" height="50" relative="1" as="geometry">
            <mxPoint x="350" y="-110" as="sourcePoint" />
            <mxPoint x="400" y="-160" as="targetPoint" />
          </mxGeometry>
        </mxCell>
        <mxCell id="l5MXZXj10_vNmwvhvefn-34" value="" style="verticalLabelPosition=bottom;verticalAlign=top;html=1;shape=mxgraph.basic.flash" vertex="1" parent="1">
          <mxGeometry x="555" y="-310" width="15" height="27" as="geometry" />
        </mxCell>
      </root>
    </mxGraphModel>
  </diagram>
</mxfile>
